
<svg version="1.1"  xmlns="http://www.w3.org/2000/svg"  x="0px" y="0px"
	 viewBox="0 0 500 500" style="enable-background:new 0 0 500 500;">
<style type="text/css">
	.st0{fill:#FFFFFF;}
</style>
<circle class="st0" cx="250" cy="250" r="247.5"/>
<g>
	<path d="M395.06,110.66v99.93c3.31,12.37,5.09,25.35,5.09,38.74c0,82.74-67.28,150.07-150,150.15l-0.16,0.13l-0.16-0.13
		c-82.73-0.09-150-67.41-150-150.15c0-13.4,1.79-26.38,5.1-38.75v-99.93c-34.5,36.07-55.72,84.94-55.72,138.68
		c0,110.71,90.07,200.78,200.78,200.78c110.71,0,200.78-90.07,200.78-200.78C450.78,195.6,429.56,146.73,395.06,110.66z"/>
	<polygon points="250,377.43 279.83,351.96 370.69,268.01 370.69,49.89 311.02,49.89 311.02,240.49 279.83,271.64 279.83,100.29 
		279.83,50.77 279.83,49.89 273.08,49.89 226.92,49.89 220.17,49.89 220.17,50.77 220.17,102.16 220.17,271.64 188.98,240.49 
		188.98,49.89 129.31,49.89 129.31,268.01 220.17,351.96 	"/>
</g>
</svg>
